<?xml version="1.0" encoding="UTF-8" standalone="no"?><!-- Generator: Gravit.io --><svg xmlns="http://www.w3.org/2000/svg" xmlns:xlink="http://www.w3.org/1999/xlink" style="isolation:isolate" viewBox="35.588 97.877 328.824 104.245" width="328.824pt" height="104.245pt"><path d=" M 174.027 137.539 L 174.027 137.539 L 174.027 137.539 Q 174.027 136.171 173.703 135.523 L 173.703 135.523 L 173.703 135.523 Q 173.379 134.875 172.299 133.651 L 172.299 133.651 L 172.371 133.147 L 172.371 133.147 Q 176.187 130.915 181.875 130.915 L 181.875 130.915 L 181.875 130.915 Q 184.107 130.915 185.187 131.275 L 185.187 131.275 L 185.187 131.275 Q 185.547 131.995 185.547 134.263 L 185.547 134.263 L 185.547 134.263 Q 185.547 136.531 182.091 150.499 L 182.091 150.499 L 182.091 150.499 Q 183.675 151.147 185.691 151.147 L 185.691 151.147 L 185.691 151.147 Q 189.147 151.147 191.379 148.771 L 191.379 148.771 L 191.379 148.771 Q 193.611 146.395 194.295 143.623 L 194.295 143.623 L 194.295 143.623 Q 194.979 140.851 194.979 137.755 L 194.979 137.755 L 194.979 137.755 Q 194.979 132.067 191.919 129.511 L 191.919 129.511 L 191.919 129.511 Q 188.859 126.955 182.019 126.955 L 182.019 126.955 L 182.019 126.955 Q 173.091 126.955 167.187 130.555 L 167.187 130.555 L 167.187 130.555 Q 161.283 134.155 161.283 138.115 L 161.283 138.115 L 161.283 138.115 Q 161.283 140.131 162.831 141.391 L 162.831 141.391 L 162.831 141.391 Q 164.379 142.651 166.035 143.083 L 166.035 143.083 L 166.035 143.083 Q 165.747 145.675 164.235 148.411 L 164.235 148.411 L 164.235 148.411 Q 161.499 148.051 159.015 145.531 L 159.015 145.531 L 159.015 145.531 Q 156.531 143.011 156.531 138.907 L 156.531 138.907 L 156.531 138.907 Q 156.531 131.563 164.739 127.099 L 164.739 127.099 L 164.739 127.099 Q 172.947 122.635 183.891 122.635 L 183.891 122.635 L 183.891 122.635 Q 194.835 122.635 200.451 126.271 L 200.451 126.271 L 200.451 126.271 Q 206.067 129.907 206.067 137.539 L 206.067 137.539 L 206.067 137.539 Q 206.067 147.547 198.075 152.659 L 198.075 152.659 L 198.075 152.659 Q 193.755 155.467 187.707 155.467 L 187.707 155.467 L 187.707 155.467 Q 183.891 155.467 181.155 154.315 L 181.155 154.315 L 181.155 154.315 Q 178.131 166.627 177.483 174.043 L 177.483 174.043 L 177.483 174.043 Q 173.235 175.267 168.051 175.267 L 168.051 175.267 L 168.051 175.267 Q 166.827 175.267 166.251 175.051 L 166.251 175.051 L 166.251 175.051 Q 166.611 170.515 170.319 156.187 L 170.319 156.187 L 170.319 156.187 Q 174.027 141.859 174.027 137.539 Z  M 205.923 175.051 L 205.923 175.051 L 205.419 175.051 L 205.419 175.051 Q 205.275 174.475 205.275 172.423 L 205.275 172.423 L 205.275 172.423 Q 205.275 170.371 207.219 161.371 L 207.219 161.371 L 207.219 161.371 Q 209.163 152.371 209.163 151.075 L 209.163 151.075 L 209.163 151.075 Q 209.163 148.843 207.147 146.179 L 207.147 146.179 L 206.499 145.315 L 206.571 144.379 L 206.571 144.379 Q 210.459 143.299 219.027 143.299 L 219.027 143.299 L 219.027 143.299 Q 219.891 145.171 219.891 148.555 L 219.891 148.555 L 219.891 148.555 Q 220.683 147.259 223.203 145.099 L 223.203 145.099 L 223.203 145.099 Q 225.723 142.939 228.387 142.939 L 228.387 142.939 L 228.387 142.939 Q 232.275 142.939 232.275 149.707 L 232.275 149.707 L 232.275 149.707 Q 231.915 150.139 231.303 150.823 L 231.303 150.823 L 231.303 150.823 Q 230.691 151.507 228.855 152.731 L 228.855 152.731 L 228.855 152.731 Q 227.019 153.955 225.291 154.243 L 225.291 154.243 L 225.291 154.243 Q 225.219 154.243 224.067 152.299 L 224.067 152.299 L 224.067 152.299 Q 222.915 150.355 222.339 150.355 L 222.339 150.355 L 222.339 150.355 Q 220.539 151.003 219.171 152.515 L 219.171 152.515 L 219.171 152.515 Q 215.859 167.419 215.859 171.811 L 215.859 171.811 L 215.859 171.811 Q 215.859 173.395 215.931 174.043 L 215.931 174.043 L 215.931 174.043 Q 213.411 175.051 205.923 175.051 Z  M 240.771 175.699 L 240.771 175.699 L 240.771 175.699 Q 235.803 175.699 232.995 172.207 L 232.995 172.207 L 232.995 172.207 Q 230.187 168.715 230.187 162.451 L 230.187 162.451 L 230.187 162.451 Q 230.187 154.459 234.471 148.699 L 234.471 148.699 L 234.471 148.699 Q 238.755 142.939 246.315 142.939 L 246.315 142.939 L 248.907 143.083 L 248.907 143.083 Q 250.131 142.435 251.643 142.435 L 251.643 142.435 L 251.643 142.435 Q 257.331 142.435 257.331 153.163 L 257.331 153.163 L 257.331 153.163 Q 260.283 153.019 263.307 152.371 L 263.307 152.371 L 264.459 152.083 L 264.891 154.891 L 264.891 154.891 Q 262.515 155.899 258.483 156.691 L 258.483 156.691 L 257.043 156.979 L 257.043 156.979 Q 255.675 164.539 251.499 170.119 L 251.499 170.119 L 251.499 170.119 Q 247.323 175.699 240.771 175.699 Z  M 244.659 169.507 L 244.659 169.507 L 244.659 169.507 Q 247.683 169.507 250.095 165.619 L 250.095 165.619 L 250.095 165.619 Q 252.507 161.731 253.443 157.411 L 253.443 157.411 L 253.443 157.411 Q 245.739 157.411 245.739 151.651 L 245.739 151.651 L 245.739 151.651 Q 245.739 149.347 246.675 147.331 L 246.675 147.331 L 247.035 146.611 L 247.035 146.611 Q 246.747 146.467 246.315 146.467 L 246.315 146.467 L 246.315 146.467 Q 245.883 146.467 245.667 146.611 L 245.667 146.611 L 245.667 146.611 Q 243.867 147.763 242.283 152.011 L 242.283 152.011 L 242.283 152.011 Q 240.699 156.259 240.699 161.731 L 240.699 161.731 L 240.699 161.731 Q 240.699 169.507 244.659 169.507 Z  M 264.027 150.859 L 264.027 150.859 L 264.027 150.859 Q 264.027 149.203 261.939 146.323 L 261.939 146.323 L 261.291 145.315 L 261.363 144.379 L 261.363 144.379 Q 265.467 143.299 273.747 143.299 L 273.747 143.299 L 273.747 143.299 Q 274.683 144.379 274.683 147.295 L 274.683 147.295 L 274.683 147.295 Q 274.683 150.211 272.919 160.867 L 272.919 160.867 L 272.919 160.867 Q 271.155 171.523 269.967 176.203 L 269.967 176.203 L 269.967 176.203 Q 268.779 180.883 267.483 183.583 L 267.483 183.583 L 267.483 183.583 Q 266.187 186.283 263.415 188.623 L 263.415 188.623 L 263.415 188.623 Q 260.643 190.963 257.511 190.963 L 257.511 190.963 L 257.511 190.963 Q 254.379 190.963 251.715 189.595 L 251.715 189.595 L 251.715 189.595 Q 249.051 188.227 247.683 186.931 L 247.683 186.931 L 246.387 185.563 L 247.971 183.259 L 247.971 183.259 Q 251.499 185.347 253.227 185.347 L 253.227 185.347 L 253.227 185.347 Q 255.963 185.347 258.123 181.531 L 258.123 181.531 L 258.123 181.531 Q 260.283 177.715 262.155 166.375 L 262.155 166.375 L 262.155 166.375 Q 264.027 155.035 264.027 150.859 Z  M 266.619 135.415 L 266.619 135.415 L 266.619 135.415 Q 265.179 134.011 265.179 131.635 L 265.179 131.635 L 265.179 131.635 Q 265.179 129.259 267.159 127.459 L 267.159 127.459 L 267.159 127.459 Q 269.139 125.659 271.731 125.659 L 271.731 125.659 L 271.731 125.659 Q 274.323 125.659 275.763 127.099 L 275.763 127.099 L 275.763 127.099 Q 277.203 128.539 277.203 130.879 L 277.203 130.879 L 277.203 130.879 Q 277.203 133.219 275.151 135.019 L 275.151 135.019 L 275.151 135.019 Q 273.099 136.819 270.579 136.819 L 270.579 136.819 L 270.579 136.819 Q 268.059 136.819 266.619 135.415 Z  M 277.923 162.379 L 277.923 162.379 L 277.923 162.379 Q 277.923 153.379 283.359 148.159 L 283.359 148.159 L 283.359 148.159 Q 288.795 142.939 295.707 142.939 L 295.707 142.939 L 295.707 142.939 Q 299.955 142.939 302.691 145.027 L 302.691 145.027 L 302.691 145.027 Q 305.427 147.115 305.427 150.607 L 305.427 150.607 L 305.427 150.607 Q 305.427 154.099 303.663 156.475 L 303.663 156.475 L 303.663 156.475 Q 301.899 158.851 299.379 160.147 L 299.379 160.147 L 299.379 160.147 Q 294.267 162.667 290.019 163.315 L 290.019 163.315 L 288.291 163.531 L 288.291 163.531 Q 288.795 170.299 293.835 170.299 L 293.835 170.299 L 293.835 170.299 Q 295.563 170.299 297.507 169.435 L 297.507 169.435 L 297.507 169.435 Q 299.451 168.571 300.531 167.707 L 300.531 167.707 L 301.611 166.843 L 303.339 169.147 L 303.339 169.147 Q 302.763 169.939 301.035 171.235 L 301.035 171.235 L 301.035 171.235 Q 299.307 172.531 297.795 173.395 L 297.795 173.395 L 297.795 173.395 Q 293.619 175.699 288.651 175.699 L 288.651 175.699 L 288.651 175.699 Q 283.683 175.699 280.803 172.171 L 280.803 172.171 L 280.803 172.171 Q 277.923 168.643 277.923 162.379 Z  M 288.219 160.003 L 288.219 160.003 Q 291.891 159.355 294.051 156.907 L 294.051 156.907 L 294.051 156.907 Q 296.211 154.459 296.211 150.571 L 296.211 150.571 L 296.211 150.571 Q 296.211 146.683 293.907 146.683 L 293.907 146.683 L 293.907 146.683 Q 291.171 146.683 289.695 151.327 L 289.695 151.327 L 289.695 151.327 Q 288.219 155.971 288.219 160.003 L 288.219 160.003 L 288.219 160.003 Z  M 323.499 146.539 L 323.499 146.539 L 323.499 146.539 Q 320.619 146.539 318.891 151.327 L 318.891 151.327 L 318.891 151.327 Q 317.163 156.115 317.163 161.587 L 317.163 161.587 L 317.163 161.587 Q 317.163 170.227 322.491 170.227 L 322.491 170.227 L 322.491 170.227 Q 324.219 170.227 326.163 169.399 L 326.163 169.399 L 326.163 169.399 Q 328.107 168.571 329.259 167.779 L 329.259 167.779 L 330.339 166.915 L 331.995 169.147 L 331.995 169.147 Q 331.419 169.939 329.691 171.235 L 329.691 171.235 L 329.691 171.235 Q 327.963 172.531 326.451 173.395 L 326.451 173.395 L 326.451 173.395 Q 324.939 174.259 322.563 174.979 L 322.563 174.979 L 322.563 174.979 Q 320.187 175.699 317.883 175.699 L 317.883 175.699 L 317.883 175.699 Q 312.267 175.699 309.459 172.027 L 309.459 172.027 L 309.459 172.027 Q 306.651 168.355 306.651 162.163 L 306.651 162.163 L 306.651 162.163 Q 306.651 153.595 311.367 148.267 L 311.367 148.267 L 311.367 148.267 Q 316.083 142.939 323.499 142.939 L 323.499 142.939 L 323.499 142.939 Q 328.323 142.939 331.167 145.135 L 331.167 145.135 L 331.167 145.135 Q 334.011 147.331 334.011 150.535 L 334.011 150.535 L 334.011 150.535 Q 334.011 153.739 331.995 156.043 L 331.995 156.043 L 331.995 156.043 Q 330.195 156.043 327.819 155.251 L 327.819 155.251 L 327.819 155.251 Q 325.443 154.459 324.219 153.307 L 324.219 153.307 L 325.299 146.971 L 325.299 146.971 Q 324.651 146.539 323.499 146.539 Z  M 351.075 143.803 L 358.059 143.803 L 358.059 143.803 Q 357.915 145.603 356.835 147.979 L 356.835 147.979 L 356.835 147.979 Q 354.099 147.691 351.651 147.691 L 351.651 147.691 L 350.355 147.691 L 350.355 147.691 Q 347.043 163.747 347.043 167.707 L 347.043 167.707 L 347.043 167.707 Q 347.043 169.795 347.943 169.795 L 347.943 169.795 L 347.943 169.795 Q 348.843 169.795 352.731 167.995 L 352.731 167.995 L 354.027 170.371 L 354.027 170.371 Q 347.619 175.699 342.147 175.699 L 342.147 175.699 L 342.147 175.699 Q 339.627 175.699 338.007 174.115 L 338.007 174.115 L 338.007 174.115 Q 336.387 172.531 336.387 169.903 L 336.387 169.903 L 336.387 169.903 Q 336.387 167.275 336.999 163.963 L 336.999 163.963 L 336.999 163.963 Q 337.611 160.651 338.691 155.863 L 338.691 155.863 L 338.691 155.863 Q 339.771 151.075 340.275 148.123 L 340.275 148.123 L 340.275 148.123 Q 337.611 148.339 336.315 148.555 L 336.315 148.555 L 336.315 148.555 Q 336.171 147.691 336.171 146.215 L 336.171 146.215 L 336.171 146.215 Q 336.171 144.739 336.387 143.803 L 336.387 143.803 L 340.923 143.803 L 340.923 143.803 Q 341.499 139.915 341.499 136.459 L 341.499 136.459 L 341.427 134.227 L 341.427 134.011 L 341.427 134.011 Q 347.043 132.067 352.011 132.067 L 352.011 132.067 L 352.011 132.067 Q 352.299 133.507 352.299 135.667 L 352.299 135.667 L 352.299 135.667 Q 352.299 137.827 351.075 143.803 L 351.075 143.803 L 351.075 143.803 Z  M 50.42 178.291 L 50.42 178.291 L 50.42 178.291 Q 46.1 178.291 43.256 175.447 L 43.256 175.447 L 43.256 175.447 Q 40.412 172.603 40.412 168.823 L 40.412 168.823 L 40.412 168.823 Q 40.412 165.043 42.212 161.767 L 42.212 161.767 L 42.212 161.767 Q 44.012 158.491 47.36 155.683 L 47.36 155.683 L 47.36 155.683 Q 50.708 152.875 56.108 151.039 L 56.108 151.039 L 56.108 151.039 Q 61.508 149.203 68.06 148.987 L 68.06 148.987 L 68.06 148.987 Q 71.876 139.555 74.828 127.891 L 74.828 127.891 L 74.828 127.891 Q 74.9 127.459 74.9 126.775 L 74.9 126.775 L 74.9 126.775 Q 74.9 126.091 74.18 125.587 L 74.18 125.587 L 74.18 124.867 L 74.18 124.867 Q 80.372 123.715 85.484 123.715 L 85.484 123.715 L 89.804 124.003 L 89.804 124.003 Q 91.676 127.315 91.892 133.183 L 91.892 133.183 L 91.892 133.183 Q 92.108 139.051 92.18 153.523 L 92.18 153.523 L 92.18 153.523 Q 99.956 156.907 105.5 162.091 L 105.5 162.091 L 105.5 162.091 Q 105.212 163.027 104.384 163.927 L 104.384 163.927 L 104.384 163.927 Q 103.556 164.827 102.836 165.259 L 102.836 165.259 L 102.116 165.691 L 102.116 165.691 Q 97.868 161.515 92.252 158.563 L 92.252 158.563 L 92.252 158.563 Q 92.396 162.667 93.044 165.475 L 93.044 165.475 L 93.044 165.475 Q 94.052 170.083 95.42 170.083 L 95.42 170.083 L 95.42 170.083 Q 96.212 170.083 97.292 169.723 L 97.292 169.723 L 98.372 172.531 L 98.372 172.531 Q 93.404 175.699 88.868 175.699 L 88.868 175.699 L 88.868 175.699 Q 81.38 175.699 81.38 164.395 L 81.38 164.395 L 81.38 154.963 L 81.38 154.963 Q 76.34 153.739 72.236 153.451 L 72.236 153.451 L 72.236 153.451 Q 62.876 178.291 50.42 178.291 Z  M 66.26 153.379 L 66.26 153.379 Q 58.124 154.027 52.724 159.067 L 52.724 159.067 L 52.724 159.067 Q 47.324 164.107 47.324 168.499 L 47.324 168.499 L 47.324 168.499 Q 47.324 172.891 50.708 172.891 L 50.708 172.891 L 50.708 172.891 Q 57.62 172.891 66.26 153.379 L 66.26 153.379 L 66.26 153.379 Z  M 80.588 129.475 L 80.588 129.475 Q 80.444 129.403 80.012 129.403 L 80.012 129.403 L 80.012 129.403 Q 79.58 129.403 79.436 129.475 L 79.436 129.475 L 79.436 129.475 Q 78.788 134.947 73.82 149.131 L 73.82 149.131 L 73.82 149.131 Q 77.348 149.347 81.38 150.139 L 81.38 150.139 L 81.38 150.139 Q 81.38 132.427 80.588 129.475 L 80.588 129.475 L 80.588 129.475 Z  M 125.084 123.787 L 125.084 123.787 L 125.084 123.787 Q 125.948 119.827 125.948 117.451 L 125.948 117.451 L 125.948 117.451 Q 125.948 115.075 125.66 113.779 L 125.66 113.779 L 125.66 113.779 Q 127.172 113.347 128.576 113.347 L 128.576 113.347 L 128.576 113.347 Q 129.98 113.347 131.276 113.707 L 131.276 113.707 L 131.276 113.707 Q 130.916 119.035 129.116 124.651 L 129.116 124.651 L 129.116 124.651 Q 133.652 125.515 136.208 125.515 L 136.208 125.515 L 136.208 125.515 Q 138.764 125.515 140.42 125.299 L 140.42 125.299 L 140.42 125.299 Q 139.268 136.243 134.624 145.207 L 134.624 145.207 L 134.624 145.207 Q 129.98 154.171 122.132 164.323 L 122.132 164.323 L 122.132 164.323 Q 123.356 164.899 125.876 166.195 L 125.876 166.195 L 125.876 166.195 Q 128.396 167.491 129.836 168.211 L 129.836 168.211 L 129.836 168.211 Q 133.724 170.155 136.028 170.155 L 136.028 170.155 L 136.028 170.155 Q 138.332 170.155 139.556 168.715 L 139.556 168.715 L 139.556 168.715 Q 141.5 169.291 142.94 171.019 L 142.94 171.019 L 142.94 171.019 Q 141.788 175.051 139.556 177.823 L 139.556 177.823 L 139.556 177.823 Q 137.324 180.595 134.408 180.595 L 134.408 180.595 L 134.408 180.595 Q 131.492 180.595 128.756 179.155 L 128.756 179.155 L 128.756 179.155 Q 126.02 177.715 121.952 174.727 L 121.952 174.727 L 121.952 174.727 Q 117.884 171.739 116.444 170.803 L 116.444 170.803 L 116.444 170.803 Q 111.764 176.059 106.652 176.059 L 106.652 176.059 L 106.652 176.059 Q 103.484 176.059 101.504 174.331 L 101.504 174.331 L 101.504 174.331 Q 99.524 172.603 99.524 169.183 L 99.524 169.183 L 99.524 169.183 Q 99.524 165.763 102.44 163.315 L 102.44 163.315 L 102.44 163.315 Q 105.356 160.867 109.964 160.867 L 109.964 160.867 L 109.964 160.867 Q 112.628 160.867 116.228 162.163 L 116.228 162.163 L 116.228 162.163 Q 121.196 155.755 124.904 148.411 L 124.904 148.411 L 124.904 148.411 Q 128.612 141.067 129.548 135.379 L 129.548 135.379 L 125.3 134.299 L 125.3 134.299 Q 122.492 138.475 118.64 141.139 L 118.64 141.139 L 118.64 141.139 Q 114.788 143.803 110.468 143.803 L 110.468 143.803 L 110.468 143.803 Q 106.148 143.803 103.34 140.959 L 103.34 140.959 L 103.34 140.959 Q 100.532 138.115 100.532 133.399 L 100.532 133.399 L 100.532 133.399 Q 100.532 128.683 103.7 125.335 L 103.7 125.335 L 103.7 125.335 Q 106.868 121.987 112.916 121.987 L 112.916 121.987 L 112.916 121.987 Q 117.308 121.987 125.084 123.787 Z  M 110.972 139.483 L 110.972 139.483 L 110.972 139.483 Q 116.372 139.483 121.052 133.003 L 121.052 133.003 L 121.052 133.003 Q 115.22 131.419 112.34 131.419 L 112.34 131.419 L 112.34 131.419 Q 106.292 131.419 106.292 135.523 L 106.292 135.523 L 106.292 135.523 Q 106.292 137.179 107.444 138.331 L 107.444 138.331 L 107.444 138.331 Q 108.596 139.483 110.972 139.483 Z  M 108.02 167.059 L 108.02 167.059 L 108.02 167.059 Q 106.364 167.059 105.392 167.635 L 105.392 167.635 L 105.392 167.635 Q 104.42 168.211 104.42 169.183 L 104.42 169.183 L 104.42 169.183 Q 104.42 170.155 105.068 170.731 L 105.068 170.731 L 105.068 170.731 Q 105.716 171.307 106.652 171.307 L 106.652 171.307 L 106.652 171.307 Q 108.812 171.307 111.98 167.923 L 111.98 167.923 L 111.98 167.923 Q 109.676 167.059 108.02 167.059 Z " fill="rgb(2,172,187)"/></svg>